<svg width="22" height="22" viewBox="0 0 22 22" fill="none" xmlns="http://www.w3.org/2000/svg">
<path d="M5.46686 19.2291H4.79426C4.73631 19.1549 4.67796 19.0796 4.619 19.0031L4.43926 19.1417L4.619 19.0031C4.36671 18.6759 4.23267 18.2705 4.23267 17.8597C4.23267 16.9332 4.90115 16.1324 5.82557 15.9974L5.82561 15.9974C9.42061 15.4721 11.9139 15.519 15.4949 16.0146L15.495 16.0147C16.4089 16.1409 17.0783 16.9284 17.0783 17.8458V17.846C17.0786 18.27 16.9325 18.681 16.6647 19.0096C16.6037 19.0837 16.5434 19.1567 16.4835 19.2286H15.7947C15.951 19.0462 16.1053 18.862 16.2575 18.6761C16.4476 18.4439 16.5515 18.1488 16.5517 17.8461M5.46686 19.2291L5.90171 16.518C9.44141 16.0009 11.8845 16.0458 15.4228 16.5357L15.4244 16.5359C15.7389 16.5815 16.0263 16.7394 16.2335 16.9803C16.4405 17.2211 16.5535 17.5286 16.5517 17.8461M5.46686 19.2291C5.32123 19.0484 5.17771 18.8659 5.03631 18.6818L5.03578 18.6811C4.85567 18.4449 4.75848 18.1559 4.75925 17.8588C4.75942 17.1855 5.24437 16.6139 5.90166 16.518L5.46686 19.2291ZM16.5517 17.8461C16.5517 17.8464 16.5517 17.8467 16.5517 17.847L16.3017 17.8453H16.5517C16.5517 17.8456 16.5517 17.8458 16.5517 17.8461Z" fill="#3F3F3F" stroke="#3F3F3F" stroke-width="0.5"/>
<path d="M10.6555 12.2791C11.1256 12.2791 11.5911 12.1865 12.0254 12.0066C12.4598 11.8267 12.8544 11.563 13.1868 11.2306C13.5192 10.8982 13.7829 10.5036 13.9628 10.0693C14.1427 9.63495 14.2353 9.16946 14.2353 8.69936C14.2353 8.22926 14.1427 7.76376 13.9628 7.32944C13.7829 6.89513 13.5192 6.5005 13.1868 6.16809C12.8544 5.83568 12.4598 5.57199 12.0254 5.3921C11.5911 5.2122 11.1256 5.1196 10.6555 5.1196C9.70612 5.1196 8.7956 5.49675 8.12426 6.16809C7.45293 6.83942 7.07578 7.74995 7.07578 8.69936C7.07578 9.64877 7.45293 10.5593 8.12426 11.2306C8.7956 11.902 9.70612 12.2791 10.6555 12.2791ZM13.2056 11.2494C12.5293 11.9257 11.612 12.3057 10.6555 12.3057C9.69907 12.3057 8.78179 11.9257 8.10547 11.2494C7.42915 10.5731 7.04919 9.65582 7.04919 8.69936C7.04919 7.7429 7.42915 6.82561 8.10547 6.14929C8.78179 5.47297 9.69907 5.09302 10.6555 5.09302C11.612 5.09302 12.5293 5.47297 13.2056 6.14929C13.8819 6.82561 14.2619 7.7429 14.2619 8.69936C14.2619 9.65582 13.8819 10.5731 13.2056 11.2494Z" fill="#3F3F3F" stroke="#3F3F3F"/>
<path fill-rule="evenodd" clip-rule="evenodd" d="M10.6554 20.5051C15.758 20.5051 19.8946 16.3685 19.8946 11.2658C19.8946 6.16321 15.758 2.02658 10.6554 2.02658C5.55273 2.02658 1.41611 6.16321 1.41611 11.2658C1.41611 16.3685 5.55273 20.5051 10.6554 20.5051ZM10.6554 21.5317C16.3252 21.5317 20.9212 16.9357 20.9212 11.2658C20.9212 5.59602 16.3252 1 10.6554 1C4.98555 1 0.389526 5.59602 0.389526 11.2658C0.389526 16.9357 4.98555 21.5317 10.6554 21.5317Z" fill="#3F3F3F" stroke="#3F3F3F" stroke-width="0.5"/>
</svg>
