<svg width="17" height="14" viewBox="0 0 17 14" fill="none" xmlns="http://www.w3.org/2000/svg">
<path d="M9.16248 0.29541V2.35999C11.8933 2.69387 13.9957 4.66987 13.9957 7.07514C13.9957 7.68838 13.8507 8.26756 13.6091 8.80585L15.7035 9.84836C16.1546 9.00344 16.4124 8.06314 16.4124 7.07514C16.4124 3.54559 13.2305 0.6361 9.16248 0.29541ZM8.35694 11.8448C5.23949 11.8448 2.71814 9.71208 2.71814 7.07514C2.71814 4.66987 4.82061 2.69387 7.5514 2.35999V0.29541C3.47535 0.6361 0.301514 3.53878 0.301514 7.07514C0.301514 10.8364 3.90229 13.8889 8.34888 13.8889C11.0152 13.8889 13.3755 12.7919 14.8416 11.1021L12.7471 10.0596C11.7161 11.1498 10.1372 11.8448 8.35694 11.8448Z" fill="#ED5614"/>
</svg>
