<svg width="23" height="16" viewBox="0 0 23 16" fill="none" xmlns="http://www.w3.org/2000/svg">
<path d="M20.8695 0L2.43467 0C2.02724 0 1.63649 0.161852 1.34839 0.449952C1.06029 0.738051 0.898438 1.1288 0.898437 1.53623L0.898437 13.8261C0.898437 14.2335 1.06029 14.6243 1.34839 14.9124C1.63649 15.2005 2.02724 15.3623 2.43467 15.3623L20.8695 15.3623C21.2769 15.3623 21.6676 15.2005 21.9557 14.9124C22.2438 14.6243 22.4057 14.2335 22.4057 13.8261V1.53623C22.4057 1.1288 22.2438 0.738051 21.9557 0.449952C21.6676 0.161852 21.2769 0 20.8695 0ZM19.1796 1.53623L11.6521 6.74406L4.12452 1.53623L19.1796 1.53623ZM2.43467 13.8261L2.43467 2.23522L11.2142 8.31101C11.3428 8.40021 11.4956 8.44801 11.6521 8.44801C11.8086 8.44801 11.9613 8.40021 12.0899 8.31101L20.8695 2.23522V13.8261L2.43467 13.8261Z" fill="#ED5614"/>
</svg>
