<svg width="18" height="18" viewBox="0 0 15 17" fill="none" xmlns="http://www.w3.org/2000/svg">
<path d="M11.884 5.60868H13.4203C13.624 5.60868 13.8194 5.68961 13.9634 5.83366C14.1075 5.97771 14.1884 6.17308 14.1884 6.3768V15.5942C14.1884 15.7979 14.1075 15.9933 13.9634 16.1373C13.8194 16.2814 13.624 16.3623 13.4203 16.3623H1.13042C0.926704 16.3623 0.73133 16.2814 0.587281 16.1373C0.443231 15.9933 0.362305 15.7979 0.362305 15.5942L0.362305 6.3768C0.362305 6.17308 0.443231 5.97771 0.587281 5.83366C0.73133 5.68961 0.926704 5.60868 1.13042 5.60868H2.66665V4.84057C2.66665 3.61827 3.15221 2.44603 4.01651 1.58173C4.88081 0.71743 6.05305 0.231873 7.27535 0.231873C8.49765 0.231873 9.66989 0.71743 10.5342 1.58173C11.3985 2.44603 11.884 3.61827 11.884 4.84057V5.60868ZM1.89854 7.14492L1.89854 14.8261H12.6522V7.14492L1.89854 7.14492ZM6.50723 10.2174H8.04346V11.7536H6.50723V10.2174ZM3.43477 10.2174H4.971V11.7536H3.43477V10.2174ZM9.5797 10.2174H11.1159V11.7536H9.5797V10.2174ZM10.3478 5.60868V4.84057C10.3478 4.0257 10.0241 3.24421 9.44791 2.66801C8.87171 2.09181 8.09022 1.7681 7.27535 1.7681C6.46048 1.7681 5.67899 2.09181 5.10279 2.66801C4.52659 3.24421 4.20288 4.0257 4.20288 4.84057V5.60868L10.3478 5.60868Z" fill="#ED5614"/>
</svg>
