<svg width="7" height="10" viewBox="0 0 7 10" fill="none" xmlns="http://www.w3.org/2000/svg">
<path d="M5.65385 0H1.34615C0.603077 0 0 0.509091 0 1.13636V8.86364C0 9.49091 0.603077 10 1.34615 10H5.65385C6.39692 10 7 9.49091 7 8.86364V1.13636C7 0.509091 6.39692 0 5.65385 0ZM3.5 9.54545C3.05308 9.54545 2.69231 9.24091 2.69231 8.86364C2.69231 8.48636 3.05308 8.18182 3.5 8.18182C3.94692 8.18182 4.30769 8.48636 4.30769 8.86364C4.30769 9.24091 3.94692 9.54545 3.5 9.54545ZM5.92308 7.72727H1.07692V1.36364H5.92308V7.72727Z" fill="#ED5614"/>
</svg>
